HIERARCHY
ROOT mixamorig:Hips
{
	OFFSET -0.000008 104.274872 1.554316
	CHANNELS 6 Xposition Yposition Zposition Xrotation Yrotation Zrotation
	JOINT mixamorig:Spine
	{
		OFFSET -0.000005 10.181595 0.131519
		CHANNELS 6 Xposition Yposition Zposition Xrotation Yrotation Zrotation
		JOINT mixamorig:Spine1
		{
			OFFSET -0.000000 9.893959 -1.470707
			CHANNELS 6 Xposition Yposition Zposition Xrotation Yrotation Zrotation
			JOINT mixamorig:Spine2
			{
				OFFSET -0.000000 9.220757 -1.370641
				CHANNELS 6 Xposition Yposition Zposition Xrotation Yrotation Zrotation
				JOINT mixamorig:Neck
				{
					OFFSET 0.000001 16.740417 -2.049036
					CHANNELS 6 Xposition Yposition Zposition Xrotation Yrotation Zrotation
					JOINT mixamorig:Head
					{
						OFFSET 0.000000 9.617874 1.685006
						CHANNELS 6 Xposition Yposition Zposition Xrotation Yrotation Zrotation
						JOINT mixamorig:HeadTop_End
						{
							OFFSET 0.000002 22.037354 7.501101
							CHANNELS 6 Xposition Yposition Zposition Xrotation Yrotation Zrotation
							End Site
							{
								OFFSET 0.000168 2310.654297 -282.823242
							}
						}
					}
				}
				JOINT mixamorig:RightShoulder
				{
					OFFSET -4.569970 11.014908 -2.160885
					CHANNELS 6 Xposition Yposition Zposition Xrotation Yrotation Zrotation
					JOINT mixamorig:RightArm
					{
						OFFSET -10.592851 -0.524811 -2.232101
						CHANNELS 6 Xposition Yposition Zposition Xrotation Yrotation Zrotation
						JOINT mixamorig:RightForeArm
						{
							OFFSET -27.841511 0.000031 -0.000004
							CHANNELS 6 Xposition Yposition Zposition Xrotation Yrotation Zrotation
							JOINT mixamorig:RightHand
							{
								OFFSET -28.328831 -0.000015 0.000015
								CHANNELS 6 Xposition Yposition Zposition Xrotation Yrotation Zrotation
								JOINT mixamorig:RightHandThumb1
								{
									OFFSET -2.464806 -1.573990 2.681852
									CHANNELS 6 Xposition Yposition Zposition Xrotation Yrotation Zrotation
									JOINT mixamorig:RightHandThumb2
									{
										OFFSET -3.215179 -1.872803 1.924282
										CHANNELS 6 Xposition Yposition Zposition Xrotation Yrotation Zrotation
										JOINT mixamorig:RightHandThumb3
										{
											OFFSET -2.654831 -1.527969 1.512609
											CHANNELS 6 Xposition Yposition Zposition Xrotation Yrotation Zrotation
											JOINT mixamorig:RightHandThumb4
											{
												OFFSET -2.018814 -1.152008 1.108052
												CHANNELS 6 Xposition Yposition Zposition Xrotation Yrotation Zrotation
												End Site
												{
													OFFSET -188.809540 -114.533607 132.431396
												}
											}
										}
									}
								}
								JOINT mixamorig:RightHandIndex1
								{
									OFFSET -9.108284 -0.517868 2.259835
									CHANNELS 6 Xposition Yposition Zposition Xrotation Yrotation Zrotation
									JOINT mixamorig:RightHandIndex2
									{
										OFFSET -3.699989 0.000000 0.001215
										CHANNELS 6 Xposition Yposition Zposition Xrotation Yrotation Zrotation
										JOINT mixamorig:RightHandIndex3
										{
											OFFSET -2.850006 0.000031 -0.000522
											CHANNELS 6 Xposition Yposition Zposition Xrotation Yrotation Zrotation
											JOINT mixamorig:RightHandIndex4
											{
												OFFSET -2.772186 -0.000015 -0.000020
												CHANNELS 6 Xposition Yposition Zposition Xrotation Yrotation Zrotation
												End Site
												{
													OFFSET -277.218445 0.000000 -0.050231
												}
											}
										}
									}
								}
								JOINT mixamorig:RightHandMiddle1
								{
									OFFSET -9.532516 -0.000031 -0.000023
									CHANNELS 6 Xposition Yposition Zposition Xrotation Yrotation Zrotation
									JOINT mixamorig:RightHandMiddle2
									{
										OFFSET -3.700005 -0.000015 0.003713
										CHANNELS 6 Xposition Yposition Zposition Xrotation Yrotation Zrotation
										JOINT mixamorig:RightHandMiddle3
										{
											OFFSET -2.949974 0.000015 -0.002054
											CHANNELS 6 Xposition Yposition Zposition Xrotation Yrotation Zrotation
											JOINT mixamorig:RightHandMiddle4
											{
												OFFSET -2.946640 0.000000 -0.000156
												CHANNELS 6 Xposition Yposition Zposition Xrotation Yrotation Zrotation
												End Site
												{
													OFFSET -294.664337 0.000000 -0.113670
												}
											}
										}
									}
								}
								JOINT mixamorig:RightHandRing1
								{
									OFFSET -9.103600 -0.043076 -1.865134
									CHANNELS 6 Xposition Yposition Zposition Xrotation Yrotation Zrotation
									JOINT mixamorig:RightHandRing2
									{
										OFFSET -3.379288 0.000000 -0.001055
										CHANNELS 6 Xposition Yposition Zposition Xrotation Yrotation Zrotation
										JOINT mixamorig:RightHandRing3
										{
											OFFSET -2.889687 -0.000015 0.000379
											CHANNELS 6 Xposition Yposition Zposition Xrotation Yrotation Zrotation
											JOINT mixamorig:RightHandRing4
											{
												OFFSET -2.638809 -0.000015 0.000941
												CHANNELS 6 Xposition Yposition Zposition Xrotation Yrotation Zrotation
												End Site
												{
													OFFSET -263.880371 0.000000 0.516020
												}
											}
										}
									}
								}
								JOINT mixamorig:RightHandPinky1
								{
									OFFSET -8.076683 -0.486710 -3.806280
									CHANNELS 6 Xposition Yposition Zposition Xrotation Yrotation Zrotation
									JOINT mixamorig:RightHandPinky2
									{
										OFFSET -3.600014 -0.000015 -0.003747
										CHANNELS 6 Xposition Yposition Zposition Xrotation Yrotation Zrotation
										JOINT mixamorig:RightHandPinky3
										{
											OFFSET -2.099983 0.000000 -0.005739
											CHANNELS 6 Xposition Yposition Zposition Xrotation Yrotation Zrotation
											JOINT mixamorig:RightHandPinky4
											{
												OFFSET -2.115768 -0.000031 -0.003680
												CHANNELS 6 Xposition Yposition Zposition Xrotation Yrotation Zrotation
												End Site
												{
													OFFSET -211.577087 0.000000 -0.350686
												}
											}
										}
									}
								}
							}
						}
					}
				}
				JOINT mixamorig:LeftShoulder
				{
					OFFSET 4.570447 11.014725 -2.160855
					CHANNELS 6 Xposition Yposition Zposition Xrotation Yrotation Zrotation
					JOINT mixamorig:LeftArm
					{
						OFFSET 10.592371 -0.524597 -2.232119
						CHANNELS 6 Xposition Yposition Zposition Xrotation Yrotation Zrotation
						JOINT mixamorig:LeftForeArm
						{
							OFFSET 27.841532 -0.000031 0.000026
							CHANNELS 6 Xposition Yposition Zposition Xrotation Yrotation Zrotation
							JOINT mixamorig:LeftHand
							{
								OFFSET 28.328846 -0.000061 0.000022
								CHANNELS 6 Xposition Yposition Zposition Xrotation Yrotation Zrotation
								JOINT mixamorig:LeftHandThumb1
								{
									OFFSET 2.466141 -1.576172 2.681732
									CHANNELS 6 Xposition Yposition Zposition Xrotation Yrotation Zrotation
									JOINT mixamorig:LeftHandThumb2
									{
										OFFSET 3.217812 -1.872070 1.916482
										CHANNELS 6 Xposition Yposition Zposition Xrotation Yrotation Zrotation
										JOINT mixamorig:LeftHandThumb3
										{
											OFFSET 2.656029 -1.528778 1.514513
											CHANNELS 6 Xposition Yposition Zposition Xrotation Yrotation Zrotation
											JOINT mixamorig:LeftHandThumb4
											{
												OFFSET 2.020889 -1.154053 1.115139
												CHANNELS 6 Xposition Yposition Zposition Xrotation Yrotation Zrotation
												End Site
												{
													OFFSET 190.885437 -115.081749 130.048782
												}
											}
										}
									}
								}
								JOINT mixamorig:LeftHandIndex1
								{
									OFFSET 9.109314 -0.518021 2.259871
									CHANNELS 6 Xposition Yposition Zposition Xrotation Yrotation Zrotation
									JOINT mixamorig:LeftHandIndex2
									{
										OFFSET 3.699989 0.000000 -0.000322
										CHANNELS 6 Xposition Yposition Zposition Xrotation Yrotation Zrotation
										JOINT mixamorig:LeftHandIndex3
										{
											OFFSET 2.850006 0.000000 0.000352
											CHANNELS 6 Xposition Yposition Zposition Xrotation Yrotation Zrotation
											JOINT mixamorig:LeftHandIndex4
											{
												OFFSET 2.774864 -0.000031 -0.000027
												CHANNELS 6 Xposition Yposition Zposition Xrotation Yrotation Zrotation
												End Site
												{
													OFFSET 277.486267 0.000000 -0.009857
												}
											}
										}
									}
								}
								JOINT mixamorig:LeftHandMiddle1
								{
									OFFSET 9.533394 0.000061 0.000044
									CHANNELS 6 Xposition Yposition Zposition Xrotation Yrotation Zrotation
									JOINT mixamorig:LeftHandMiddle2
									{
										OFFSET 3.699989 -0.000015 -0.000231
										CHANNELS 6 Xposition Yposition Zposition Xrotation Yrotation Zrotation
										JOINT mixamorig:LeftHandMiddle3
										{
											OFFSET 2.949997 -0.000015 -0.000059
											CHANNELS 6 Xposition Yposition Zposition Xrotation Yrotation Zrotation
											JOINT mixamorig:LeftHandMiddle4
											{
												OFFSET 2.952896 0.000031 0.000063
												CHANNELS 6 Xposition Yposition Zposition Xrotation Yrotation Zrotation
												End Site
												{
													OFFSET 295.289337 0.000000 0.022810
												}
											}
										}
									}
								}
								JOINT mixamorig:LeftHandRing1
								{
									OFFSET 9.104523 -0.042999 -1.865074
									CHANNELS 6 Xposition Yposition Zposition Xrotation Yrotation Zrotation
									JOINT mixamorig:LeftHandRing2
									{
										OFFSET 3.150009 -0.000031 0.000043
										CHANNELS 6 Xposition Yposition Zposition Xrotation Yrotation Zrotation
										JOINT mixamorig:LeftHandRing3
										{
											OFFSET 2.949982 -0.000015 0.000040
											CHANNELS 6 Xposition Yposition Zposition Xrotation Yrotation Zrotation
											JOINT mixamorig:LeftHandRing4
											{
												OFFSET 2.644348 0.000000 0.000057
												CHANNELS 6 Xposition Yposition Zposition Xrotation Yrotation Zrotation
												End Site
												{
													OFFSET 264.434631 0.000000 0.012105
												}
											}
										}
									}
								}
								JOINT mixamorig:LeftHandPinky1
								{
									OFFSET 8.077789 -0.486847 -3.806259
									CHANNELS 6 Xposition Yposition Zposition Xrotation Yrotation Zrotation
									JOINT mixamorig:LeftHandPinky2
									{
										OFFSET 3.599953 0.000031 0.014727
										CHANNELS 6 Xposition Yposition Zposition Xrotation Yrotation Zrotation
										JOINT mixamorig:LeftHandPinky3
										{
											OFFSET 2.100021 0.000015 0.007705
											CHANNELS 6 Xposition Yposition Zposition Xrotation Yrotation Zrotation
											JOINT mixamorig:LeftHandPinky4
											{
												OFFSET 2.125504 0.000031 0.007517
												CHANNELS 6 Xposition Yposition Zposition Xrotation Yrotation Zrotation
												End Site
												{
													OFFSET 212.550781 0.000000 0.625752
												}
											}
										}
									}
								}
							}
						}
					}
				}
			}
		}
	}
	JOINT mixamorig:RightUpLeg
	{
		OFFSET -8.207787 -6.751648 -1.599560
		CHANNELS 6 Xposition Yposition Zposition Xrotation Yrotation Zrotation
		JOINT mixamorig:RightLeg
		{
			OFFSET -0.000002 -44.370117 0.345942
			CHANNELS 6 Xposition Yposition Zposition Xrotation Yrotation Zrotation
			JOINT mixamorig:RightFoot
			{
				OFFSET 0.000003 -44.423679 -3.043532
				CHANNELS 6 Xposition Yposition Zposition Xrotation Yrotation Zrotation
				JOINT mixamorig:RightToeBase
				{
					OFFSET -0.000002 -8.728671 10.710558
					CHANNELS 6 Xposition Yposition Zposition Xrotation Yrotation Zrotation
					JOINT mixamorig:RightToe_End
					{
						OFFSET -0.000001 -0.000679 9.278119
						CHANNELS 6 Xposition Yposition Zposition Xrotation Yrotation Zrotation
						End Site
						{
							OFFSET 0.000000 -0.067690 927.812134
						}
					}
				}
			}
		}
	}
	JOINT mixamorig:LeftUpLeg
	{
		OFFSET 8.207793 -6.751686 -1.599556
		CHANNELS 6 Xposition Yposition Zposition Xrotation Yrotation Zrotation
		JOINT mixamorig:LeftLeg
		{
			OFFSET -0.000004 -44.370014 0.346954
			CHANNELS 6 Xposition Yposition Zposition Xrotation Yrotation Zrotation
			JOINT mixamorig:LeftFoot
			{
				OFFSET -0.000001 -44.423672 -3.044401
				CHANNELS 6 Xposition Yposition Zposition Xrotation Yrotation Zrotation
				JOINT mixamorig:LeftToeBase
				{
					OFFSET -0.000002 -8.728669 10.710558
					CHANNELS 6 Xposition Yposition Zposition Xrotation Yrotation Zrotation
					JOINT mixamorig:LeftToe_End
					{
						OFFSET -0.000003 -0.000679 9.278133
						CHANNELS 6 Xposition Yposition Zposition Xrotation Yrotation Zrotation
						End Site
						{
							OFFSET 0.000000 -0.068021 927.813477
						}
					}
				}
			}
		}
	}
}
MOTION
Frames: 3
Frame Time: 0.033333
0.000006 104.270477 1.554256 0.000010 0.000003 -0.000113 -0.000005 10.181587 0.131522 0.000001 -0.000003 0.000084 -0.000000 9.893967 -1.470711 0.000001 0.000000 -0.000000 -0.000000 9.220802 -1.370642 0.000000 -0.000000 -0.000000 0.000001 16.740433 -2.049030 0.000000 -0.000000 -0.000000 0.000000 9.617859 1.685014 0.000000 0.000000 0.000000 0.000002 22.037384 7.501101 0.000000 -0.000000 0.000000 -4.569968 11.014880 -2.160881 0.000008 0.000001 -0.000038 -10.592878 -0.524756 -2.231922 72.379836 26.728977 -19.720964 -27.841530 -0.000003 0.000553 -57.003007 109.030057 74.590522 -28.328831 0.000007 0.000027 -0.000317 -0.000046 0.000008 -2.464421 -1.573890 2.682387 -35.797701 -156.034975 16.362239 -3.215275 -1.872568 1.924634 153.380422 33.275312 15.599939 -2.654950 -1.527904 1.513088 151.452505 26.227552 -35.640842 -2.018833 -1.152015 1.108064 -0.000000 0.000000 0.000002 -9.108388 -0.517559 2.260127 100.233572 17.467840 -20.890651 -3.700091 0.000319 0.001519 97.299678 13.194401 -14.946558 -2.850076 0.000375 -0.000263 95.764846 10.682223 -11.806321 -2.772146 -0.000000 -0.000021 -0.000001 0.000000 -0.000001 -9.532592 0.000274 0.000239 90.498033 15.841787 -16.121598 -3.700072 0.000328 0.003951 88.989934 10.496568 -10.222819 -2.950054 0.000345 -0.001833 88.906913 10.538292 -10.333340 -2.946622 0.000002 -0.000158 0.000001 -0.000001 -0.000001 -9.103715 -0.042769 -1.864877 88.807069 17.657089 -17.254806 -3.379303 0.000325 -0.000845 86.391340 7.751443 -7.295214 -2.889725 0.000355 0.000597 89.058782 4.953641 -4.916577 -2.638809 -0.000001 0.000939 0.000004 -0.000001 0.000000 -8.076756 -0.486394 -3.806037 85.549882 16.968855 -15.576351 -3.600021 0.000292 -0.003554 88.126372 6.779900 -6.226128 -2.100027 0.000308 -0.005510 88.670684 4.397818 -4.086544 -2.115769 -0.000055 -0.003682 -0.000000 -0.000002 -0.000003 4.570446 11.014691 -2.160851 -0.000018 0.000010 -0.000021 10.592394 -0.524477 -2.232354 74.440312 -11.399091 8.670895 27.841833 0.000082 -0.000199 103.543421 -69.317514 82.545739 28.328835 -0.000029 0.000022 0.000016 -0.000089 -0.000001 2.466083 -1.576163 2.681900 -25.700385 154.548712 -35.395458 3.217794 -1.871725 1.916353 157.018891 -31.293707 -0.411096 2.656110 -1.528639 1.514467 139.251028 -28.054963 44.925402 2.020895 -1.154069 1.115150 0.000001 0.000000 0.000001 9.109379 -0.517852 2.259745 86.683140 -16.098416 15.191640 3.700036 0.000141 -0.000461 81.176347 -15.406031 13.235154 2.850051 0.000170 0.000203 79.604400 -12.828374 10.701590 2.774879 -0.000046 -0.000017 -0.000001 0.000001 0.000000 9.533449 0.000217 -0.000084 84.028566 -15.410532 13.890441 3.700058 0.000162 -0.000404 85.322785 -13.595305 12.534770 2.950065 0.000166 -0.000197 84.160840 -16.502381 14.922572 2.952871 -0.000030 0.000059 0.000002 -0.000001 -0.000002 9.104581 -0.042858 -1.865221 82.416450 -14.863096 13.034130 3.150050 0.000202 -0.000092 90.098986 -12.430163 12.453319 2.950012 0.000173 -0.000062 90.608962 -13.405856 13.549591 2.644312 0.000032 0.000056 0.000001 -0.000000 -0.000001 8.077830 -0.486738 -3.806424 73.148772 -16.253499 12.537727 3.599994 0.000172 0.014575 76.608679 -12.727250 10.471705 2.100051 0.000181 0.007548 80.006336 -11.561057 10.116073 2.125517 -0.000015 0.007512 0.000000 0.000002 0.000001 -8.207786 -6.751667 -1.599560 -0.077001 -0.000003 0.000080 -0.000002 -44.370110 0.345938 0.153719 -0.000000 -0.000000 0.000000 -44.423679 -3.043532 -0.076700 0.000000 -0.000002 -0.000006 -8.728667 10.710559 -0.000009 -0.000000 -0.000000 -0.000001 -0.000679 9.278123 0.000000 -0.000000 -0.000000 8.207792 -6.751710 -1.599556 -0.074518 -0.000003 0.000081 -0.000002 -44.370014 0.346960 0.148822 0.000002 0.000000 -0.000001 -44.423664 -3.044403 -0.074314 0.000000 -0.000002 -0.000004 -8.728671 10.710558 0.000007 -0.000000 -0.000000 0.000000 -0.000680 9.278137 -0.000000 0.000000 -0.000001 
0.000006 104.270477 1.554256 0.000010 0.000003 -0.000113 -0.000005 10.181587 0.131522 0.000001 -0.000003 0.000084 -0.000000 9.893967 -1.470711 0.000001 0.000000 -0.000000 -0.000000 9.220802 -1.370642 0.000000 -0.000000 -0.000000 0.000001 16.740433 -2.049030 0.000000 -0.000000 -0.000000 0.000000 9.617859 1.685014 0.000000 0.000000 0.000000 0.000002 22.037384 7.501101 0.000000 -0.000000 0.000000 -4.569968 11.014880 -2.160881 0.000008 0.000001 -0.000038 -10.592875 -0.524768 -2.231900 72.985107 29.715691 -22.206634 -27.841518 0.000000 0.000534 -53.795256 105.691522 67.598416 -28.328840 0.000021 0.000027 -0.000320 -0.000043 0.000006 -2.464394 -1.573799 2.682332 -45.025720 -159.143380 -3.409124 -3.215244 -1.872515 1.924610 148.330112 33.156522 23.766200 -2.654963 -1.527863 1.513045 146.547323 27.697203 -29.558234 -2.018835 -1.151985 1.108052 0.000003 -0.000004 0.000005 -9.108367 -0.517550 2.260123 100.415324 15.953440 -19.154596 -3.700065 0.000306 0.001521 96.040151 13.103328 -14.522073 -2.850092 0.000373 -0.000263 95.005561 11.173858 -12.186943 -2.772171 -0.000015 -0.000019 0.000001 -0.000001 -0.000000 -9.532576 0.000262 0.000222 88.043092 15.102950 -14.737789 -3.700051 0.000336 0.003932 87.702648 10.127662 -9.642530 -2.950055 0.000343 -0.001828 91.494291 10.711016 -10.985143 -2.946641 0.000001 -0.000154 0.000001 -0.000001 0.000001 -9.103683 -0.042759 -1.864891 87.888299 16.756430 -16.115143 -3.379300 0.000337 -0.000855 87.796993 5.608813 -5.413327 -2.889719 0.000360 0.000622 96.192908 4.188289 -4.715620 -2.638795 -0.000013 0.000939 0.000004 -0.000002 0.000004 -8.076742 -0.486383 -3.806035 85.327600 16.298575 -14.897799 -3.600015 0.000299 -0.003534 88.964860 4.826895 -4.408975 -2.100001 0.000329 -0.005481 92.381730 2.347473 -2.229536 -2.115764 -0.000056 -0.003680 0.000002 -0.000001 -0.000008 4.570446 11.014691 -2.160851 -0.000018 0.000010 -0.000021 10.592393 -0.524478 -2.232358 73.784266 -9.920317 7.454480 27.841833 0.000079 -0.000184 105.145257 -71.253811 86.237750 28.328815 -0.000029 0.000020 0.000023 -0.000089 0.000000 2.466269 -1.576057 2.681840 8.186293 166.120528 -98.995963 3.217850 -1.871749 1.916394 165.257274 -26.760669 21.172666 2.656097 -1.528657 1.514478 140.762604 -27.172110 54.833288 2.020895 -1.154082 1.115148 0.000001 -0.000000 0.000001 9.109398 -0.517859 2.259758 88.247369 -20.849912 20.222322 3.700033 0.000163 -0.000443 85.986932 -12.397896 11.580157 2.850025 0.000192 0.000199 85.197123 -9.634713 8.861193 2.774886 -0.000028 -0.000020 -0.000000 -0.000000 0.000000 9.533476 0.000199 -0.000076 85.923192 -20.090382 18.726186 3.700055 0.000191 -0.000381 88.392490 -10.561723 10.268517 2.950053 0.000181 -0.000218 88.966103 -11.129663 10.934678 2.952876 -0.000015 0.000067 -0.000000 -0.000001 -0.000001 9.104605 -0.042865 -1.865191 84.859349 -19.346275 17.713353 3.150045 0.000198 -0.000098 89.974184 -11.655432 11.652028 2.950018 0.000182 -0.000083 90.655147 -10.361488 10.481739 2.644328 0.000016 0.000054 -0.000002 0.000003 -0.000001 8.077847 -0.486737 -3.806390 77.125936 -20.542386 16.933371 3.600023 0.000167 0.014571 79.606968 -16.698919 14.387875 2.100047 0.000181 0.007554 82.305712 -13.006955 11.807012 2.125517 0.000001 0.007509 -0.000000 -0.000001 0.000001 -8.207786 -6.751667 -1.599560 -0.077001 -0.000003 0.000080 -0.000002 -44.370110 0.345938 0.153719 -0.000000 -0.000000 0.000000 -44.423679 -3.043532 -0.076700 0.000000 -0.000002 -0.000006 -8.728667 10.710559 -0.000009 -0.000000 -0.000000 -0.000001 -0.000679 9.278123 0.000000 -0.000000 -0.000000 8.207792 -6.751710 -1.599556 -0.074518 -0.000003 0.000081 -0.000002 -44.370014 0.346960 0.148822 0.000002 0.000000 -0.000001 -44.423664 -3.044403 -0.074314 0.000000 -0.000002 -0.000004 -8.728671 10.710558 0.000007 -0.000000 -0.000000 0.000000 -0.000680 9.278137 -0.000000 0.000000 -0.000001 
0.000006 104.270477 1.554256 0.000010 0.000003 -0.000113 -0.000005 10.181587 0.131522 0.000001 -0.000003 0.000084 -0.000000 9.893967 -1.470711 0.000001 0.000000 -0.000000 -0.000000 9.220802 -1.370642 0.000000 -0.000000 -0.000000 0.000001 16.740433 -2.049030 0.000000 -0.000000 -0.000000 0.000000 9.617859 1.685014 0.000000 0.000000 0.000000 0.000002 22.037384 7.501101 0.000000 -0.000000 0.000000 -4.569968 11.014880 -2.160881 0.000008 0.000001 -0.000038 -10.592865 -0.524787 -2.231870 73.098262 37.270351 -28.070134 -27.841532 0.000017 0.000570 -53.189682 103.457435 64.797281 -28.328838 0.000023 0.000032 -0.000322 -0.000042 0.000005 -2.464396 -1.573817 2.682343 -43.442899 -158.376350 0.146479 -3.215267 -1.872536 1.924624 149.023663 33.051856 21.401472 -2.654964 -1.527877 1.513056 146.202412 27.705773 -30.003983 -2.018842 -1.152001 1.108075 -0.000002 -0.000001 0.000002 -9.108377 -0.517554 2.260133 99.504969 16.195347 -19.137288 -3.700052 0.000319 0.001518 95.510606 13.303872 -14.609360 -2.850076 0.000365 -0.000262 94.638336 11.323906 -12.271822 -2.772154 -0.000017 -0.000019 0.000001 -0.000001 -0.000001 -9.532588 0.000270 0.000205 87.862638 15.804281 -15.369406 -3.700056 0.000332 0.003944 87.596309 10.775517 -10.245665 -2.950070 0.000335 -0.001826 91.323809 11.156481 -11.408339 -2.946634 -0.000014 -0.000157 0.000003 0.000001 0.000000 -9.103692 -0.042757 -1.864880 87.920989 17.526728 -16.867927 -3.379307 0.000327 -0.000833 87.645834 6.667176 -6.415296 -2.889760 0.000351 0.000612 96.002441 4.952007 -5.548372 -2.638809 -0.000039 0.000936 -0.000002 0.000000 0.000000 -8.076738 -0.486377 -3.806031 85.569088 17.065472 -15.671107 -3.600035 0.000284 -0.003529 88.861103 5.925006 -5.472265 -2.100008 0.000329 -0.005481 92.321796 3.209641 -3.122033 -2.115761 -0.000040 -0.003679 0.000002 -0.000000 -0.000003 4.570446 11.014691 -2.160851 -0.000018 0.000010 -0.000021 10.592426 -0.524468 -2.232376 72.749431 -21.990467 16.289110 27.841825 0.000047 -0.000205 107.083118 -74.284147 91.425285 28.328831 -0.000028 0.000023 0.000022 -0.000089 0.000001 2.466263 -1.575959 2.681810 23.386836 179.445011 -127.643996 3.217864 -1.871815 1.916418 170.345464 -21.843268 35.737138 2.656118 -1.528663 1.514478 145.143227 -25.663807 54.523795 2.020879 -1.154063 1.115155 -0.000000 0.000002 0.000004 9.109406 -0.517861 2.259759 96.582905 -23.280650 26.015441 3.700063 0.000180 -0.000475 93.440471 -14.280163 15.172657 2.850048 0.000222 0.000201 92.638197 -10.581876 11.076327 2.774875 -0.000030 -0.000026 0.000001 -0.000001 0.000002 9.533479 0.000194 -0.000072 89.980400 -22.896225 22.879230 3.700055 0.000189 -0.000370 93.029212 -11.388202 11.999596 2.950051 0.000206 -0.000197 94.105786 -10.652152 11.442202 2.952864 -0.000027 0.000062 -0.000001 0.000000 0.000001 9.104595 -0.042865 -1.865210 89.376509 -22.095083 21.863769 3.150054 0.000207 -0.000067 94.833878 -13.640474 14.831867 2.950027 0.000185 -0.000073 95.194068 -10.488691 11.480908 2.644310 0.000017 0.000055 0.000001 -0.000001 -0.000000 8.077856 -0.486728 -3.806397 80.236370 -22.816382 19.826912 3.600028 0.000156 0.014583 80.093366 -19.008116 16.475927 2.100047 0.000166 0.007559 83.325829 -13.997716 12.908048 2.125496 -0.000000 0.007512 0.000003 0.000001 -0.000000 -8.207786 -6.751667 -1.599560 -0.077001 -0.000003 0.000080 -0.000002 -44.370110 0.345938 0.153719 -0.000000 -0.000000 0.000000 -44.423679 -3.043532 -0.076700 0.000000 -0.000002 -0.000006 -8.728667 10.710559 -0.000009 -0.000000 -0.000000 -0.000001 -0.000679 9.278123 0.000000 -0.000000 -0.000000 8.207792 -6.751710 -1.599556 -0.074518 -0.000003 0.000081 -0.000002 -44.370014 0.346960 0.148822 0.000002 0.000000 -0.000001 -44.423664 -3.044403 -0.074314 0.000000 -0.000002 -0.000004 -8.728671 10.710558 0.000007 -0.000000 -0.000000 0.000000 -0.000680 9.278137 -0.000000 0.000000 -0.000001 
